<?xml version="1.0" standalone="no"?>
<!DOCTYPE svg PUBLIC "-//W3C//DTD SVG 20010904//EN"
 "http://www.w3.org/TR/2001/REC-SVG-20010904/DTD/svg10.dtd">
<svg version="1.0" xmlns="http://www.w3.org/2000/svg"
 width="543.000000pt" height="484.000000pt" viewBox="0 0 543.000000 484.000000"
 preserveAspectRatio="xMidYMid meet">

<g transform="translate(0.000000,484.000000) scale(0.100000,-0.100000)"
fill="#000000" stroke="none">
<path d="M1170 3035 c0 -8 -4 -15 -9 -15 -4 0 -19 -47 -31 -105 -13 -58 -27
-105 -30 -105 -4 0 -17 -47 -30 -105 -13 -58 -27 -105 -31 -105 -4 0 -20 -53
-35 -117 -15 -65 -30 -120 -34 -123 -3 -3 -17 -49 -30 -102 -12 -54 -26 -98
-30 -98 -7 0 -30 -89 -30 -116 0 -11 25 -14 135 -14 l135 0 0 30 c0 17 5 30
10 30 6 0 10 9 10 21 0 11 5 40 11 65 l11 44 128 0 c100 0 129 -3 133 -14 3
-8 11 -50 17 -95 l12 -81 140 0 141 0 -7 42 c-4 23 -11 45 -15 48 -5 3 -19 50
-31 105 -13 55 -27 102 -31 105 -4 3 -18 55 -30 115 -13 61 -26 112 -30 115
-3 3 -19 59 -34 125 -15 66 -31 122 -35 125 -7 6 -50 185 -50 211 0 26 -20 29
-181 29 -126 0 -149 -2 -149 -15z m169 -305 c8 -49 17 -90 20 -90 4 0 13 -35
20 -77 7 -43 15 -90 18 -105 l6 -28 -82 0 c-69 0 -81 3 -81 17 0 31 43 248 50
253 4 3 10 31 14 63 4 31 11 57 15 57 4 0 13 -40 20 -90z"/>
<path d="M2978 2773 c-21 -2 -38 -8 -38 -14 0 -5 -10 -9 -21 -9 -12 0 -39 -5
-60 -12 l-39 -11 0 -94 c0 -76 3 -93 15 -93 8 0 15 4 15 9 0 5 25 15 55 22 30
7 55 16 55 21 0 4 27 8 60 8 33 0 60 -4 60 -9 0 -5 9 -11 20 -14 11 -3 25 -17
32 -32 16 -36 4 -42 -99 -50 -46 -4 -83 -11 -83 -15 0 -4 -16 -11 -36 -15 -20
-3 -43 -12 -51 -18 -43 -36 -65 -66 -76 -104 -6 -24 -15 -43 -19 -43 -4 0 -8
-29 -8 -65 0 -37 4 -65 10 -65 6 0 10 -8 10 -17 1 -27 38 -103 50 -103 6 0 18
-7 26 -15 9 -8 26 -15 40 -15 13 0 24 -4 24 -10 0 -5 14 -10 30 -10 17 0 30 4
30 9 0 5 14 11 31 15 30 6 90 58 102 89 13 34 27 16 27 -33 l0 -50 116 0 116
0 -3 272 c-3 206 -7 272 -16 276 -7 2 -13 12 -13 22 0 25 -39 110 -50 110 -6
0 -19 9 -30 20 -11 11 -29 20 -39 20 -11 0 -21 5 -23 10 -4 12 -159 21 -220
13z m157 -414 c12 -18 -6 -100 -25 -117 -40 -36 -50 -42 -73 -42 -18 0 -29 9
-42 36 -29 62 0 119 66 127 62 7 68 7 74 -4z"/>
<path d="M4148 2773 c-16 -2 -28 -8 -28 -12 0 -4 -16 -13 -36 -20 -19 -7 -49
-27 -67 -44 -34 -32 -77 -110 -77 -139 0 -9 -6 -18 -12 -20 -17 -6 -18 -305
-2 -316 6 -4 15 -18 19 -32 12 -38 48 -88 73 -101 12 -7 22 -16 22 -21 0 -4 6
-8 14 -8 8 0 22 -7 31 -17 9 -9 39 -18 66 -21 27 -2 49 -8 49 -13 0 -5 23 -9
50 -9 28 0 50 4 50 9 0 4 28 11 62 14 34 3 64 10 66 16 2 6 10 11 18 11 11 0
14 19 14 90 0 95 -9 110 -45 73 -25 -24 -174 -25 -199 0 -10 9 -24 17 -32 17
-15 0 -34 39 -34 71 0 18 9 19 191 19 l192 0 -6 117 c-3 70 -10 119 -16 121
-6 2 -11 10 -11 19 0 48 -81 153 -130 168 -14 4 -28 12 -31 17 -6 10 -150 19
-191 11z m117 -180 c22 -21 35 -57 35 -94 l0 -29 -75 0 -75 0 0 31 c0 40 27
97 48 102 34 9 51 7 67 -10z"/>
<path d="M3820 2760 c0 -5 -9 -10 -19 -10 -24 0 -72 -45 -92 -85 l-14 -30 -3
58 -3 57 -124 0 -125 0 0 -360 0 -360 125 0 125 0 0 178 c0 242 3 252 74 310
18 14 96 16 96 2 0 -5 9 -10 20 -10 19 0 20 7 20 114 0 63 -3 121 -6 130 -7
18 -74 23 -74 6z"/>
<path d="M1760 2743 c0 -20 45 -239 50 -243 3 -3 17 -63 30 -135 13 -71 27
-132 30 -135 3 -3 15 -49 25 -102 l19 -98 127 0 c140 0 138 -1 139 73 0 15 4
27 8 27 5 0 19 71 31 158 29 201 31 212 42 212 5 0 9 -15 9 -32 0 -53 43 -333
52 -336 4 -2 8 -16 8 -30 1 -73 -1 -72 139 -72 l128 0 23 118 c12 64 26 119
29 122 4 3 18 61 31 130 13 69 27 127 30 130 4 3 14 46 24 95 9 50 19 98 22
108 5 15 -5 17 -104 17 l-110 0 -7 -105 c-4 -58 -11 -105 -15 -105 -4 0 -13
-69 -20 -152 -14 -163 -23 -169 -35 -25 -4 42 -11 77 -16 77 -5 0 -9 17 -10
38 0 20 -8 89 -17 152 l-17 115 -121 3 -122 3 -5 -33 c-3 -18 -9 -55 -13 -83
-4 -27 -10 -52 -13 -55 -8 -6 -51 -272 -51 -312 0 -39 -18 -35 -24 5 -4 28
-22 202 -42 410 l-7 67 -123 0 c-68 0 -124 -3 -124 -7z"/>
</g>
</svg>
